<svg width="87" height="86" viewBox="0 0 87 86" fill="none" xmlns="http://www.w3.org/2000/svg">
<path id="Star 1" d="M38.6298 2.71055C41.3454 0.0839837 45.6546 0.0839834 48.3702 2.71055C50.2981 4.57534 53.1217 5.1755 55.6414 4.25611C59.1906 2.96114 63.1272 4.71385 64.5397 8.21786C65.5425 10.7056 67.8778 12.4023 70.5537 12.5873C74.3227 12.8478 77.2061 16.0502 77.0712 19.8258C76.9755 22.5063 78.4188 25.0062 80.7881 26.2636C84.1253 28.0346 85.4569 32.1329 83.798 35.5272C82.6203 37.937 82.922 40.8078 84.5751 42.9202C86.9034 45.8954 86.453 50.181 83.5569 52.6071C81.5008 54.3296 80.6088 57.075 81.2598 59.677C82.1767 63.3421 80.0221 67.0739 76.3896 68.1124C73.8107 68.8497 71.8792 70.9949 71.4155 73.6367C70.7624 77.3579 67.2762 79.8907 63.5354 79.362C60.8795 78.9866 58.2425 80.1607 56.7443 82.3855C54.6342 85.5193 50.4192 86.4152 47.2169 84.4107C44.9433 82.9875 42.0567 82.9875 39.7831 84.4107C36.5808 86.4152 32.3658 85.5193 30.2557 82.3855C28.7575 80.1607 26.1205 78.9866 23.4646 79.362C19.7238 79.8907 16.2376 77.3579 15.5845 73.6367C15.1208 70.9949 13.1893 68.8497 10.6104 68.1124C6.97792 67.0739 4.82333 63.3421 5.74022 59.677C6.39119 57.075 5.49917 54.3296 3.44307 52.6071C0.547036 50.181 0.0966036 45.8954 2.42493 42.9202C4.07798 40.8078 4.37971 37.937 3.20197 35.5272C1.54311 32.1329 2.87472 28.0346 6.21189 26.2636C8.58119 25.0062 10.0245 22.5063 9.92876 19.8258C9.7939 16.0502 12.6773 12.8478 16.4463 12.5873C19.1222 12.4023 21.4575 10.7056 22.4603 8.21786C23.8728 4.71385 27.8094 2.96114 31.3586 4.25611C33.8783 5.1755 36.7019 4.57534 38.6298 2.71055Z" fill="#F83758"/>
</svg>
